<mxfile host="app.diagrams.net" agent="Mozilla/5.0 (Windows NT 10.0; Win64; x64) AppleWebKit/537.36 (KHTML, like Gecko) Chrome/140.0.0.0 Safari/537.36" version="28.2.5">
  <diagram name="Pagina-1" id="43YX1HZiOxaPDuEuGN-w">
    <mxGraphModel dx="2430" dy="2034" grid="1" gridSize="10" guides="1" tooltips="1" connect="1" arrows="1" fold="1" page="1" pageScale="1" pageWidth="827" pageHeight="1169" math="0" shadow="0">
      <root>
        <mxCell id="0" />
        <mxCell id="1" parent="0" />
        <mxCell id="-tuFiHdznxaQ97C9SKWg-1" value="UserController" style="shape=umlLifeline;perimeter=lifelinePerimeter;whiteSpace=wrap;html=1;container=1;dropTarget=0;collapsible=0;recursiveResize=0;outlineConnect=0;portConstraint=eastwest;newEdgeStyle={&quot;curved&quot;:0,&quot;rounded&quot;:0};" parent="1" vertex="1">
          <mxGeometry x="140" y="-1120" width="100" height="890" as="geometry" />
        </mxCell>
        <mxCell id="-tuFiHdznxaQ97C9SKWg-3" value="" style="html=1;points=[[0,0,0,0,5],[0,1,0,0,-5],[1,0,0,0,5],[1,1,0,0,-5]];perimeter=orthogonalPerimeter;outlineConnect=0;targetShapes=umlLifeline;portConstraint=eastwest;newEdgeStyle={&quot;curved&quot;:0,&quot;rounded&quot;:0};" parent="-tuFiHdznxaQ97C9SKWg-1" vertex="1">
          <mxGeometry x="45" y="60" width="10" height="810" as="geometry" />
        </mxCell>
        <mxCell id="-tuFiHdznxaQ97C9SKWg-2" value="UserService" style="shape=umlLifeline;perimeter=lifelinePerimeter;whiteSpace=wrap;html=1;container=1;dropTarget=0;collapsible=0;recursiveResize=0;outlineConnect=0;portConstraint=eastwest;newEdgeStyle={&quot;curved&quot;:0,&quot;rounded&quot;:0};" parent="1" vertex="1">
          <mxGeometry x="550" y="-1130" width="100" height="900" as="geometry" />
        </mxCell>
        <mxCell id="-tuFiHdznxaQ97C9SKWg-5" value="" style="html=1;points=[[0,0,0,0,5],[0,1,0,0,-5],[1,0,0,0,5],[1,1,0,0,-5]];perimeter=orthogonalPerimeter;outlineConnect=0;targetShapes=umlLifeline;portConstraint=eastwest;newEdgeStyle={&quot;curved&quot;:0,&quot;rounded&quot;:0};" parent="-tuFiHdznxaQ97C9SKWg-2" vertex="1">
          <mxGeometry x="45" y="70" width="10" height="780" as="geometry" />
        </mxCell>
        <mxCell id="-tuFiHdznxaQ97C9SKWg-4" value="2: modificaSottoscrizione(request)" style="html=1;verticalAlign=bottom;endArrow=block;curved=0;rounded=0;" parent="1" edge="1">
          <mxGeometry x="-0.125" width="80" relative="1" as="geometry">
            <mxPoint x="195" y="-1020" as="sourcePoint" />
            <mxPoint x="595" y="-1020" as="targetPoint" />
            <mxPoint as="offset" />
          </mxGeometry>
        </mxCell>
        <mxCell id="-tuFiHdznxaQ97C9SKWg-6" value="UserContex" style="shape=umlLifeline;perimeter=lifelinePerimeter;whiteSpace=wrap;html=1;container=1;dropTarget=0;collapsible=0;recursiveResize=0;outlineConnect=0;portConstraint=eastwest;newEdgeStyle={&quot;curved&quot;:0,&quot;rounded&quot;:0};" parent="1" vertex="1">
          <mxGeometry x="900" y="-1130" width="100" height="890" as="geometry" />
        </mxCell>
        <mxCell id="-tuFiHdznxaQ97C9SKWg-7" value="" style="html=1;points=[[0,0,0,0,5],[0,1,0,0,-5],[1,0,0,0,5],[1,1,0,0,-5]];perimeter=orthogonalPerimeter;outlineConnect=0;targetShapes=umlLifeline;portConstraint=eastwest;newEdgeStyle={&quot;curved&quot;:0,&quot;rounded&quot;:0};" parent="-tuFiHdznxaQ97C9SKWg-6" vertex="1">
          <mxGeometry x="45" y="70" width="10" height="240" as="geometry" />
        </mxCell>
        <mxCell id="-tuFiHdznxaQ97C9SKWg-8" value="3:getUser()" style="html=1;verticalAlign=bottom;endArrow=block;curved=0;rounded=0;" parent="1" edge="1">
          <mxGeometry x="-0.6465" width="80" relative="1" as="geometry">
            <mxPoint x="610" y="-1010" as="sourcePoint" />
            <mxPoint x="949.5" y="-1010" as="targetPoint" />
            <mxPoint as="offset" />
          </mxGeometry>
        </mxCell>
        <mxCell id="-tuFiHdznxaQ97C9SKWg-9" value="5: return User" style="html=1;verticalAlign=bottom;endArrow=open;dashed=1;endSize=8;curved=0;rounded=0;" parent="1" edge="1">
          <mxGeometry x="-0.7353" relative="1" as="geometry">
            <mxPoint x="945" y="-870" as="sourcePoint" />
            <mxPoint x="605" y="-870" as="targetPoint" />
            <mxPoint as="offset" />
          </mxGeometry>
        </mxCell>
        <mxCell id="-tuFiHdznxaQ97C9SKWg-10" value="UserEntity" style="shape=umlLifeline;perimeter=lifelinePerimeter;whiteSpace=wrap;html=1;container=1;dropTarget=0;collapsible=0;recursiveResize=0;outlineConnect=0;portConstraint=eastwest;newEdgeStyle={&quot;curved&quot;:0,&quot;rounded&quot;:0};" parent="1" vertex="1">
          <mxGeometry x="1280" y="-1130" width="100" height="870" as="geometry" />
        </mxCell>
        <mxCell id="-tuFiHdznxaQ97C9SKWg-16" value="" style="html=1;points=[[0,0,0,0,5],[0,1,0,0,-5],[1,0,0,0,5],[1,1,0,0,-5]];perimeter=orthogonalPerimeter;outlineConnect=0;targetShapes=umlLifeline;portConstraint=eastwest;newEdgeStyle={&quot;curved&quot;:0,&quot;rounded&quot;:0};" parent="-tuFiHdznxaQ97C9SKWg-10" vertex="1">
          <mxGeometry x="45" y="220" width="10" height="370" as="geometry" />
        </mxCell>
        <mxCell id="-tuFiHdznxaQ97C9SKWg-11" value="&lt;font style=&quot;font-size: 12px;&quot;&gt;1 http request: modificaSottoscrizioni(List&amp;lt;CategoriaNotificaRequest&amp;gt; request)&amp;nbsp;&lt;/font&gt;" style="html=1;verticalAlign=bottom;startArrow=oval;startFill=1;endArrow=block;startSize=8;curved=0;rounded=0;strokeWidth=1;jumpSize=14;" parent="1" edge="1">
          <mxGeometry x="-0.0826" width="60" relative="1" as="geometry">
            <mxPoint x="-360" y="-1040" as="sourcePoint" />
            <mxPoint x="185" y="-1040" as="targetPoint" />
            <mxPoint as="offset" />
          </mxGeometry>
        </mxCell>
        <mxCell id="-tuFiHdznxaQ97C9SKWg-12" value="6: List&amp;lt;CategoriaNotifica&amp;gt; categorieDisattivate: mappingFromRequestToListCategoriaNotificaEntity(request)" style="html=1;verticalAlign=bottom;endArrow=block;curved=0;rounded=0;" parent="1" edge="1">
          <mxGeometry x="0.0612" y="195" width="80" relative="1" as="geometry">
            <mxPoint x="605" y="-830" as="sourcePoint" />
            <mxPoint x="600" y="-750" as="targetPoint" />
            <Array as="points">
              <mxPoint x="685" y="-830" />
              <mxPoint x="685" y="-750" />
            </Array>
            <mxPoint as="offset" />
          </mxGeometry>
        </mxCell>
        <mxCell id="-tuFiHdznxaQ97C9SKWg-15" value="4: User: retrieveUserFromSecurityContex()" style="html=1;verticalAlign=bottom;endArrow=block;curved=0;rounded=0;" parent="1" edge="1">
          <mxGeometry x="-0.0204" y="75" width="80" relative="1" as="geometry">
            <mxPoint x="955" y="-990" as="sourcePoint" />
            <mxPoint x="950" y="-910" as="targetPoint" />
            <Array as="points">
              <mxPoint x="1035" y="-990" />
              <mxPoint x="1035" y="-910" />
            </Array>
            <mxPoint as="offset" />
          </mxGeometry>
        </mxCell>
        <mxCell id="-tuFiHdznxaQ97C9SKWg-24" value="7: setCategorieDisattivate(categorieDisattivate)" style="html=1;verticalAlign=bottom;endArrow=block;curved=0;rounded=0;" parent="1" edge="1">
          <mxGeometry x="-0.6389" width="80" relative="1" as="geometry">
            <mxPoint x="610" y="-680" as="sourcePoint" />
            <mxPoint x="1330" y="-680" as="targetPoint" />
            <mxPoint as="offset" />
          </mxGeometry>
        </mxCell>
        <mxCell id="-tuFiHdznxaQ97C9SKWg-25" value="8:this.categoireDisattivate = categorieDisattivate" style="html=1;verticalAlign=bottom;endArrow=block;curved=0;rounded=0;" parent="1" edge="1">
          <mxGeometry x="0.0939" y="55" width="80" relative="1" as="geometry">
            <mxPoint x="1335" y="-664" as="sourcePoint" />
            <mxPoint x="1330" y="-584" as="targetPoint" />
            <Array as="points">
              <mxPoint x="1415" y="-664" />
              <mxPoint x="1415" y="-584" />
            </Array>
            <mxPoint as="offset" />
          </mxGeometry>
        </mxCell>
        <mxCell id="-tuFiHdznxaQ97C9SKWg-26" value="" style="html=1;verticalAlign=bottom;endArrow=open;dashed=1;endSize=8;curved=0;rounded=0;" parent="1" target="-tuFiHdznxaQ97C9SKWg-2" edge="1">
          <mxGeometry x="-0.7353" relative="1" as="geometry">
            <mxPoint x="1330" y="-560" as="sourcePoint" />
            <mxPoint x="990" y="-560" as="targetPoint" />
            <mxPoint as="offset" />
          </mxGeometry>
        </mxCell>
        <mxCell id="-tuFiHdznxaQ97C9SKWg-27" value="UserRepository" style="shape=umlLifeline;perimeter=lifelinePerimeter;whiteSpace=wrap;html=1;container=1;dropTarget=0;collapsible=0;recursiveResize=0;outlineConnect=0;portConstraint=eastwest;newEdgeStyle={&quot;curved&quot;:0,&quot;rounded&quot;:0};" parent="1" vertex="1">
          <mxGeometry x="1610" y="-1130" width="100" height="820" as="geometry" />
        </mxCell>
        <mxCell id="-tuFiHdznxaQ97C9SKWg-29" value="" style="html=1;points=[[0,0,0,0,5],[0,1,0,0,-5],[1,0,0,0,5],[1,1,0,0,-5]];perimeter=orthogonalPerimeter;outlineConnect=0;targetShapes=umlLifeline;portConstraint=eastwest;newEdgeStyle={&quot;curved&quot;:0,&quot;rounded&quot;:0};" parent="-tuFiHdznxaQ97C9SKWg-27" vertex="1">
          <mxGeometry x="44" y="640" width="10" height="160" as="geometry" />
        </mxCell>
        <mxCell id="-tuFiHdznxaQ97C9SKWg-28" value="9: save(user)" style="html=1;verticalAlign=bottom;endArrow=block;curved=0;rounded=0;" parent="1" target="-tuFiHdznxaQ97C9SKWg-27" edge="1">
          <mxGeometry x="-0.8301" width="80" relative="1" as="geometry">
            <mxPoint x="600" y="-480" as="sourcePoint" />
            <mxPoint x="680" y="-480" as="targetPoint" />
            <mxPoint as="offset" />
          </mxGeometry>
        </mxCell>
        <mxCell id="-tuFiHdznxaQ97C9SKWg-30" value="10:query update user entity" style="html=1;verticalAlign=bottom;endArrow=block;curved=0;rounded=0;" parent="1" edge="1">
          <mxGeometry x="0.0939" y="55" width="80" relative="1" as="geometry">
            <mxPoint x="1665" y="-460" as="sourcePoint" />
            <mxPoint x="1660" y="-380" as="targetPoint" />
            <Array as="points">
              <mxPoint x="1745" y="-460" />
              <mxPoint x="1745" y="-380" />
            </Array>
            <mxPoint as="offset" />
          </mxGeometry>
        </mxCell>
        <mxCell id="-tuFiHdznxaQ97C9SKWg-31" value="" style="html=1;verticalAlign=bottom;endArrow=open;dashed=1;endSize=8;curved=0;rounded=0;" parent="1" target="-tuFiHdznxaQ97C9SKWg-2" edge="1">
          <mxGeometry x="-0.7353" relative="1" as="geometry">
            <mxPoint x="1654" y="-350" as="sourcePoint" />
            <mxPoint x="924" y="-350" as="targetPoint" />
            <mxPoint as="offset" />
          </mxGeometry>
        </mxCell>
        <mxCell id="-tuFiHdznxaQ97C9SKWg-32" value="" style="html=1;verticalAlign=bottom;endArrow=open;dashed=1;endSize=8;curved=0;rounded=0;" parent="1" target="-tuFiHdznxaQ97C9SKWg-1" edge="1">
          <mxGeometry x="-0.7353" relative="1" as="geometry">
            <mxPoint x="600" y="-300" as="sourcePoint" />
            <mxPoint x="260" y="-300" as="targetPoint" />
            <mxPoint as="offset" />
          </mxGeometry>
        </mxCell>
        <mxCell id="-tuFiHdznxaQ97C9SKWg-33" value="Client" style="shape=umlActor;verticalLabelPosition=bottom;verticalAlign=top;html=1;" parent="1" vertex="1">
          <mxGeometry x="-400" y="-1090" width="30" height="60" as="geometry" />
        </mxCell>
        <mxCell id="-tuFiHdznxaQ97C9SKWg-38" value="" style="endArrow=none;dashed=1;html=1;dashPattern=1 3;strokeWidth=2;rounded=0;" parent="1" edge="1">
          <mxGeometry width="50" height="50" relative="1" as="geometry">
            <mxPoint x="-390" y="-240" as="sourcePoint" />
            <mxPoint x="-380" y="-1010" as="targetPoint" />
          </mxGeometry>
        </mxCell>
        <mxCell id="-tuFiHdznxaQ97C9SKWg-39" value="" style="html=1;verticalAlign=bottom;endArrow=open;dashed=1;endSize=8;curved=0;rounded=0;" parent="1" edge="1">
          <mxGeometry x="-0.7353" relative="1" as="geometry">
            <mxPoint x="190" y="-270" as="sourcePoint" />
            <mxPoint x="-390" y="-270" as="targetPoint" />
            <mxPoint as="offset" />
          </mxGeometry>
        </mxCell>
        <mxCell id="-tuFiHdznxaQ97C9SKWg-40" value="response http" style="text;html=1;align=center;verticalAlign=middle;whiteSpace=wrap;rounded=0;" parent="1" vertex="1">
          <mxGeometry x="20" y="-310" width="140" height="30" as="geometry" />
        </mxCell>
      </root>
    </mxGraphModel>
  </diagram>
</mxfile>
